<svg xmlns="http://www.w3.org/2000/svg" viewBox="0 0 64 64" role="img" aria-label="AI Study Assistant favicon">
  <defs>
    <linearGradient id="bg" x1="8" y1="8" x2="56" y2="56" gradientUnits="userSpaceOnUse">
      <stop offset="0" stop-color="#4f46e5"/>
      <stop offset="1" stop-color="#06b6d4"/>
    </linearGradient>
    <linearGradient id="book" x1="17" y1="18" x2="47" y2="46" gradientUnits="userSpaceOnUse">
      <stop offset="0" stop-color="#ffffff" stop-opacity="0.98"/>
      <stop offset="1" stop-color="#e2e8f0" stop-opacity="0.92"/>
    </linearGradient>
  </defs>

  <rect x="4" y="4" width="56" height="56" rx="14" fill="url(#bg)"/>

  <path d="M18 18h11c4.4 0 8 3.6 8 8v20H26c-4.4 0-8-3.6-8-8V18z" fill="url(#book)"/>
  <path d="M46 18H35c-4.4 0-8 3.6-8 8v20h11c4.4 0 8-3.6 8-8V18z" fill="url(#book)" fill-opacity="0.94"/>
  <path d="M32 22v24" stroke="#94a3b8" stroke-width="1.6" stroke-linecap="round"/>

  <text x="22.5" y="39" fill="#4338ca" font-family="ui-sans-serif, system-ui, -apple-system, Segoe UI, Roboto" font-size="12" font-weight="800" letter-spacing="0.8">AI</text>

  <path d="M48 14l1.8 4.2L54 20l-4.2 1.8L48 26l-1.8-4.2L42 20l4.2-1.8z" fill="#f8fafc"/>
</svg>
